<?xml version="1.0" encoding="UTF-8"?>
<svg version="1.1" xmlns="http://www.w3.org/2000/svg" width="600" height="600">
<path d="M0 0 C21.94182259 11.9755735 34.29245759 37.96599282 41.3828125 60.7890625 C42.37301116 64.23058239 43.27417106 67.68753305 44.1328125 71.1640625 C44.34454102 72.00984863 44.55626953 72.85563477 44.77441406 73.72705078 C48.08834454 87.69440118 48.52143321 101.6304661 48.5703125 115.9140625 C48.57970856 117.19583878 48.57970856 117.19583878 48.58929443 118.50350952 C48.66379354 134.58084088 47.39478192 150.8953297 42.4453125 166.2890625 C42.19112549 167.10342773 41.93693848 167.91779297 41.67504883 168.75683594 C32.92135729 195.84847631 16.93658208 218.54235335 0.1328125 241.1640625 C7.75096017 250.17193014 15.56709425 258.2763508 25.0703125 265.2890625 C25.7089624 265.7624707 26.3476123 266.23587891 27.00561523 266.72363281 C31.21530556 269.80828718 31.21530556 269.80828718 36.1328125 271.1640625 C37.98000822 270.2747828 37.98000822 270.2747828 39.6796875 268.76953125 C40.35080566 268.23126709 41.02192383 267.69300293 41.71337891 267.13842773 C42.42929199 266.54876221 43.14520508 265.95909668 43.8828125 265.3515625 C74.39588819 241.2097419 112.14657525 223.89781905 151.1328125 220.1640625 C152.25171875 220.05449219 153.370625 219.94492188 154.5234375 219.83203125 C197.85516954 216.18866813 247.74739192 224.68320909 282.1328125 253.1640625 C286.70887486 257.67911069 288.28911061 261.43084285 288.4453125 267.8515625 C288.26123067 278.83072886 282.21051239 285.22020589 274.70996094 292.66015625 C263.27255088 303.56641724 249.45255006 311.80298445 236.1328125 320.1640625 C235.42527832 320.60975586 234.71774414 321.05544922 233.98876953 321.51464844 C225.13735389 327.02698973 216.05298862 331.05881316 206.1328125 334.1640625 C204.50279297 334.67646484 204.50279297 334.67646484 202.83984375 335.19921875 C154.48353265 347.38750349 99.01408612 323.00923859 56.1328125 302.1640625 C55.30185059 301.76106934 54.47088867 301.35807617 53.61474609 300.94287109 C41.29664825 294.939953 41.29664825 294.939953 37.1328125 292.1640625 C33.34810974 292.42640193 31.49974208 294.42306441 28.90234375 297.03125 C28.10304443 297.82982422 27.30374512 298.62839844 26.48022461 299.45117188 C25.64370361 300.30517578 24.80718262 301.15917969 23.9453125 302.0390625 C23.09267822 302.90080078 22.24004395 303.76253906 21.36157227 304.65039062 C14.73025305 311.4131803 8.39996343 318.26333611 3.1328125 326.1640625 C3.49160964 329.28247765 4.76556866 331.3862948 6.5390625 333.9296875 C7.03100098 334.64616455 7.52293945 335.3626416 8.02978516 336.10083008 C8.55878418 336.86419678 9.0877832 337.62756348 9.6328125 338.4140625 C15.29237307 346.76405494 20.47797726 355.21493529 25.1328125 364.1640625 C25.73971924 365.32881104 25.73971924 365.32881104 26.35888672 366.51708984 C50.00647313 412.53032892 54.06062859 460.91481106 38.5703125 510.26171875 C31.47182245 531.86654596 21.26724288 554.15296921 4.89453125 570.3828125 C2.96222705 572.10103941 2.96222705 572.10103941 2.1328125 574.7265625 C0.90373437 577.72244044 0.0486525 578.74554574 -2.8671875 580.1640625 C-6.1796875 580.4765625 -6.1796875 580.4765625 -9.8671875 579.1640625 C-15.11620987 573.09281246 -18.96392669 565.76986135 -22.7421875 558.7265625 C-23.2575708 557.76919189 -23.7729541 556.81182129 -24.30395508 555.82543945 C-37.35521547 531.37582205 -47.03625545 506.31676941 -52.8671875 479.1640625 C-53.04507812 478.38482422 -53.22296875 477.60558594 -53.40625 476.80273438 C-63.85296307 429.75107037 -51.67947375 381.35239372 -26.54296875 341.21484375 C-24.24001541 337.60139407 -21.64640653 334.2950019 -18.89526367 331.01245117 C-17.65837347 329.20919762 -17.65837347 329.20919762 -18.09936523 327.08154297 C-22.96584436 314.9284978 -37.61215973 303.58313198 -47.8671875 296.1640625 C-50.81364742 297.48137827 -52.74554754 298.8636694 -54.9296875 301.2265625 C-59.56082297 305.97469507 -64.66915721 310.05885119 -69.8671875 314.1640625 C-70.47852539 314.65181152 -71.08986328 315.13956055 -71.71972656 315.64208984 C-106.0091814 342.91199128 -145.73203504 363.66495637 -190.4296875 363.5390625 C-191.47659256 363.53874527 -191.47659256 363.53874527 -192.54464722 363.53842163 C-204.36615851 363.5028294 -215.46283435 362.37544568 -226.8671875 359.1640625 C-228.07632813 358.84824219 -229.28546875 358.53242188 -230.53125 358.20703125 C-240.81088826 355.16416715 -250.27949102 350.27999819 -259.87109375 345.5625 C-264.82416095 343.13322985 -269.80991128 340.79696002 -274.83203125 338.515625 C-276.1822424 337.89907748 -277.53242156 337.28245991 -278.88256836 336.66577148 C-280.85053783 335.76743194 -282.81971665 334.87276578 -284.79495239 333.99050903 C-305.76570485 324.61530513 -305.76570485 324.61530513 -309.8671875 315.1640625 C-311.34966814 307.01041896 -309.63493443 301.12599982 -305.1953125 294.25 C-301.2291976 288.99290139 -296.81246863 284.22848749 -292.20214844 279.53417969 C-291.1217622 278.42534143 -290.07154367 277.28716143 -289.03125 276.140625 C-265.27675377 250.45682958 -225.26936245 239.77141428 -191.46386719 238.04104614 C-185.55704513 237.83796214 -179.65184984 237.8265703 -173.7421875 237.8515625 C-172.39489563 237.85429672 -172.39489563 237.85429672 -171.02038574 237.85708618 C-157.12160072 237.90447331 -143.53429948 238.42690154 -129.8671875 241.1640625 C-128.56442871 241.42147217 -128.56442871 241.42147217 -127.23535156 241.68408203 C-101.68550956 246.9070037 -76.48441826 255.57732013 -55.19433594 270.93652344 C-53.06085398 272.48030768 -53.06085398 272.48030768 -49.8671875 274.1640625 C-46.23141136 273.4458845 -44.24814348 270.63773184 -41.8671875 267.9140625 C-40.70123047 266.58568359 -40.70123047 266.58568359 -39.51171875 265.23046875 C-38.62945222 264.20898591 -37.74799483 263.18680385 -36.8671875 262.1640625 C-36.36493652 261.58382324 -35.86268555 261.00358398 -35.34521484 260.40576172 C-27.97735446 251.89237041 -27.97735446 251.89237041 -20.8671875 243.1640625 C-22.2911143 238.96008814 -24.47330759 235.42610933 -26.80175781 231.68212891 C-53.26707562 189.11143523 -67.67502484 138.89044106 -56.55175781 89.06640625 C-51.25641608 66.61597027 -43.6772877 45.23586438 -34.1796875 24.2265625 C-33.74043945 23.25001709 -33.30119141 22.27347168 -32.84863281 21.26733398 C-28.87977805 12.70104929 -24.68321343 4.72212538 -16.8671875 -0.8359375 C-11.09857252 -2.75880916 -5.5487363 -2.32829327 0 0 Z M-11.0546875 17.7265625 C-14.64383399 21.51237455 -17.37936042 25.37931853 -19.7890625 29.984375 C-20.30314919 30.96056038 -20.30314919 30.96056038 -20.82762146 31.95646667 C-24.55042066 39.21925557 -27.29488617 46.76616137 -29.9296875 54.4765625 C-30.18354218 55.20718903 -30.43739685 55.93781555 -30.69894409 56.69058228 C-35.14622255 69.49876508 -39.0369982 82.39392806 -42.23144531 95.57714844 C-42.76732304 97.75770157 -43.34659786 99.9165778 -43.953125 102.078125 C-48.68519649 120.96299748 -47.35917809 142.59340122 -41.8671875 161.1640625 C-41.48844482 162.49703369 -41.48844482 162.49703369 -41.10205078 163.85693359 C-35.20026013 184.25287915 -26.33461845 203.74657931 -15.2421875 221.8515625 C-14.84080566 222.51091797 -14.43942383 223.17027344 -14.02587891 223.84960938 C-12.81416794 225.79570069 -12.81416794 225.79570069 -10.8671875 228.1640625 C-9.8771875 228.1640625 -8.8871875 228.1640625 -7.8671875 228.1640625 C-6.00945854 226.0170151 -4.37440409 223.91214699 -2.7421875 221.6015625 C-2.01358521 220.58533813 -2.01358521 220.58533813 -1.27026367 219.54858398 C25.82053561 181.24046601 41.18711702 133.3186093 34.0078125 86.2265625 C29.49212239 60.3872439 18.41259372 33.66428416 -1.484375 15.81640625 C-5.80962524 12.81709338 -7.62987123 14.43510191 -11.0546875 17.7265625 Z M96.1328125 250.1640625 C94.90981445 250.71271973 94.90981445 250.71271973 93.66210938 251.27246094 C77.29486656 258.74782243 62.70090817 268.68525684 48.1328125 279.1640625 C50.38529455 281.63702322 52.62741359 283.13526324 55.578125 284.6953125 C56.47684326 285.17049316 57.37556152 285.64567383 58.30151367 286.13525391 C59.27709229 286.63976074 60.2526709 287.14426758 61.2578125 287.6640625 C62.28044189 288.19306152 63.30307129 288.72206055 64.35668945 289.26708984 C98.43083955 306.66831018 139.09568907 324.75464054 178.0703125 324.4765625 C178.92584717 324.47092285 179.78138184 324.4652832 180.6628418 324.45947266 C188.10105186 324.31853668 194.9951712 323.33309837 202.1328125 321.1640625 C203.23753906 320.83148438 204.34226562 320.49890625 205.48046875 320.15625 C222.67911843 314.09958267 239.13703393 302.72386695 253.1328125 291.1640625 C254.03 290.42929687 254.9271875 289.69453125 255.8515625 288.9375 C262.21644847 283.48990642 268.58470437 277.52078458 270.2578125 268.9765625 C270.10478783 264.30930991 269.04048677 262.77164543 266.1328125 259.1640625 C263.82880785 257.65434082 261.79015084 256.49347066 259.3203125 255.3515625 C258.63380615 255.02244873 257.9472998 254.69333496 257.23999023 254.35424805 C204.49987633 229.65420787 150.06156807 225.91118639 96.1328125 250.1640625 Z M-219.8671875 256.1640625 C-220.75792969 256.35661621 -221.64867187 256.54916992 -222.56640625 256.74755859 C-242.63849118 261.2367749 -259.09764546 269.29250114 -274.078125 283.55078125 C-276.8671875 286.1640625 -276.8671875 286.1640625 -279.98046875 288.671875 C-282.76009669 291.07160792 -284.64455123 293.31493705 -286.6796875 296.3515625 C-287.26363281 297.21136719 -287.84757812 298.07117188 -288.44921875 298.95703125 C-290.64382614 302.37288021 -291.39132377 304.94463153 -291.34057617 309.08544922 C-290.34286898 313.46630482 -285.71876261 315.96996441 -282.11669922 318.29296875 C-280.28796569 319.34941049 -278.43606709 320.329531 -276.5546875 321.2890625 C-275.84248047 321.65813721 -275.13027344 322.02721191 -274.39648438 322.4074707 C-231.91435297 344.10700869 -192.02443872 357.13423597 -145.015625 341.953125 C-116.0209932 332.12575075 -91.68433058 315.74856179 -69.171875 295.25 C-66.12288044 292.49040153 -63.00378203 289.82334916 -59.8671875 287.1640625 C-80.71982879 263.97677435 -127.29194724 253.63577253 -156.98486328 252.05104065 C-159.11135534 251.98536312 -161.23589593 251.94803074 -163.36328125 251.92578125 C-164.14600906 251.91603271 -164.92873688 251.90628418 -165.73518372 251.89624023 C-184.15229674 251.71426531 -201.79219941 252.21734922 -219.8671875 256.1640625 Z M-11.8671875 254.1640625 C-13.62923885 256.08575269 -15.28637593 258.01952054 -16.9296875 260.0390625 C-17.921856 261.23677268 -18.91536309 262.43337516 -19.91015625 263.62890625 C-20.40692871 264.22687012 -20.90370117 264.82483398 -21.41552734 265.44091797 C-24.16372215 268.7030705 -27.04995521 271.83973415 -29.91796875 274.99609375 C-32.31260393 277.65946554 -34.60342875 280.38913242 -36.8671875 283.1640625 C-35.26932937 287.43858744 -32.00866131 289.97919894 -28.6796875 292.9140625 C-23.70059003 297.40383722 -19.14883679 301.99618655 -14.8671875 307.1640625 C-13.55836114 308.66726901 -12.24588856 310.16730901 -10.9296875 311.6640625 C-9.90885417 312.83072917 -8.88802083 313.99739583 -7.8671875 315.1640625 C-3.95109616 312.31599607 -0.94115718 309.08369379 2.1875 305.43359375 C8.53112962 298.03269253 15.16723353 290.98143766 22.1328125 284.1640625 C20.83667783 280.27565849 19.14937858 279.51297553 15.8203125 277.1640625 C6.93715754 270.73555181 -1.04808263 263.29032563 -8.5625 255.30859375 C-9.82850769 253.94424246 -9.82850769 253.94424246 -11.8671875 254.1640625 Z M-7.8671875 339.1640625 C-29.11489044 369.67262717 -41.34114947 402.51252412 -41.2421875 439.9765625 C-41.24131134 440.78975952 -41.24043518 441.60295654 -41.23953247 442.4407959 C-41.19034338 456.33833174 -40.13694316 469.61230409 -36.8671875 483.1640625 C-36.62049316 484.18886719 -36.37379883 485.21367187 -36.11962891 486.26953125 C-30.22659557 510.0297786 -21.4014823 539.69371327 -5.8671875 559.1640625 C-5.2071875 559.1640625 -4.5471875 559.1640625 -3.8671875 559.1640625 C25.01155935 527.28279944 35.96373091 480.07853168 34.1328125 438.1640625 C31.36520411 402.24531888 14.02170072 367.91851974 -6.8671875 339.1640625 C-7.1971875 339.1640625 -7.5271875 339.1640625 -7.8671875 339.1640625 Z " fill="#FFFFFF" transform="translate(311.8671875,10.8359375)"/>
</svg>
