<?xml version="1.0" encoding="UTF-8"?>
<svg version="1.1" xmlns="http://www.w3.org/2000/svg" width="600" height="600">
<path d="M0 0 C19.61840691 9.06183557 32.03369647 30.98520082 39.37890625 50.41796875 C55.64805524 96.03497221 54.78891747 146.60921875 34.20703125 190.61279297 C25.7444344 208.2013682 14.45379761 223.96299283 2.3359375 239.19921875 C5.84533485 243.38396404 9.42426063 247.38067705 13.3359375 251.19921875 C13.87476563 251.7715625 14.41359375 252.34390625 14.96875 252.93359375 C20.86790279 259.10425566 27.50649945 264.11878313 34.3359375 269.19921875 C37.75803509 267.24555856 40.90414238 265.06958629 44.03955078 262.68530273 C72.97813696 240.75915189 106.27768911 224.8692125 142.3359375 219.19921875 C143.04911133 219.08497559 143.76228516 218.97073242 144.49707031 218.85302734 C187.88381618 212.23022014 240.33939973 220.94698466 276.7734375 246.38671875 C283.01333742 251.33902028 287.88706603 255.74261284 289.2109375 263.87890625 C289.71962281 273.32137735 285.04162445 279.99276329 279.0234375 286.82421875 C253.78982291 313.25943403 216.35326843 335.50183991 179.30126953 336.48291016 C139.44400201 336.93714597 100.16386185 321.20129272 64.3359375 305.19921875 C63.47419922 304.81459473 62.61246094 304.4299707 61.72460938 304.03369141 C53.92466667 300.52309169 46.36019438 296.94710762 39.31640625 292.03515625 C37.3597541 290.93930079 37.3597541 290.93930079 35.44921875 291.92651367 C33.14489121 293.3142747 31.44785468 294.82845467 29.54296875 296.7265625 C28.83406494 297.43159912 28.12516113 298.13663574 27.39477539 298.86303711 C26.65348389 299.61335205 25.91219238 300.36366699 25.1484375 301.13671875 C24.38974365 301.89927979 23.6310498 302.66184082 22.84936523 303.44750977 C17.88986525 308.48351409 13.25182506 313.62014565 8.90234375 319.1953125 C7.3359375 321.19921875 7.3359375 321.19921875 5.3359375 323.19921875 C5.59142777 327.68965375 7.65841312 330.40124192 10.2734375 333.94921875 C39.11753438 374.38540999 55.45405772 423.14273027 48.20825195 472.95117188 C42.6812317 505.57605723 30.77959495 540.6313154 7.39453125 564.85546875 C5.51042592 567.00056021 4.46147145 568.62247244 3.4609375 571.26171875 C2.3359375 574.19921875 2.3359375 574.19921875 0.5234375 575.63671875 C-2.46173044 576.40433336 -4.58791315 576.63866866 -7.6640625 576.19921875 C-12.50364867 572.19181518 -15.25791288 567.19956011 -18.2890625 561.76171875 C-18.80831299 560.83721924 -19.32756348 559.91271973 -19.86254883 558.96020508 C-37.03491148 528.09682153 -49.42622209 496.24261131 -54.6640625 461.19921875 C-54.7679126 460.50900635 -54.8717627 459.81879395 -54.97875977 459.10766602 C-61.10263231 412.22779564 -47.32608737 365.08347964 -18.78979492 327.65698242 C-18.41830322 327.17592041 -18.04681152 326.6948584 -17.6640625 326.19921875 C-19.12062378 323.17178677 -20.65533169 320.88454944 -22.9140625 318.38671875 C-25.19911598 315.84253549 -27.4301162 313.27814931 -29.6015625 310.63671875 C-34.84558531 304.51404318 -41.11090251 299.82033999 -47.6640625 295.19921875 C-48.82808594 296.30716797 -48.82808594 296.30716797 -50.015625 297.4375 C-57.88379745 304.85567512 -66.0408165 311.67999822 -74.6640625 318.19921875 C-75.27008301 318.66215332 -75.87610352 319.12508789 -76.50048828 319.60205078 C-85.52443229 326.47868092 -94.78547297 332.62203516 -104.6640625 338.19921875 C-105.64149414 338.75971924 -105.64149414 338.75971924 -106.63867188 339.33154297 C-142.2930268 359.64482341 -183.58142099 368.24599706 -223.76025391 357.76000977 C-248.82825859 350.61061732 -276.7913535 340.1441381 -297.6640625 324.19921875 C-298.37691406 323.66683594 -299.08976562 323.13445312 -299.82421875 322.5859375 C-304.14859813 319.14952103 -307.10160028 315.84819239 -307.9765625 310.171875 C-308.56598334 299.69123577 -303.22878417 291.84421108 -296.6640625 284.19921875 C-296.09429687 283.50828125 -295.52453125 282.81734375 -294.9375 282.10546875 C-268.63269249 250.87601691 -231.18609634 239.85410955 -192.00976562 235.93359375 C-187.22854998 235.5276783 -182.46045784 235.31873889 -177.6640625 235.19921875 C-176.64957031 235.15925781 -175.63507813 235.11929688 -174.58984375 235.078125 C-131.93625638 234.1302675 -86.58780952 245.97043279 -51.79296875 271.21484375 C-50.73916016 271.70210938 -50.73916016 271.70210938 -49.6640625 272.19921875 C-46.64578871 271.03778821 -44.70836643 269.46048218 -42.52734375 267.109375 C-41.9540332 266.49489502 -41.38072266 265.88041504 -40.79003906 265.24731445 C-40.1915918 264.59206787 -39.59314453 263.93682129 -38.9765625 263.26171875 C-38.3587793 262.59164795 -37.74099609 261.92157715 -37.10449219 261.23120117 C-27.4864948 251.60844473 -27.4864948 251.60844473 -20.6640625 240.19921875 C-21.39523451 238.10847811 -21.39523451 238.10847811 -22.890625 236.09375 C-23.42204102 235.28856934 -23.95345703 234.48338867 -24.50097656 233.65380859 C-25.09104492 232.78191895 -25.68111328 231.9100293 -26.2890625 231.01171875 C-42.5399598 205.79951181 -53.66883408 177.81378727 -58.6640625 148.19921875 C-58.85484375 147.15636719 -59.045625 146.11351562 -59.2421875 145.0390625 C-61.16148296 127.5699196 -60.35190512 109.37601672 -56.6640625 92.19921875 C-56.46538574 91.27367188 -56.26670898 90.348125 -56.06201172 89.39453125 C-50.71451054 65.2326383 -42.12748225 42.58454588 -31.6640625 20.19921875 C-31.31956055 19.45800781 -30.97505859 18.71679688 -30.62011719 17.953125 C-24.31973196 4.62665571 -15.71394728 -4.72340057 0 0 Z M-15.6640625 26.19921875 C-21.38124384 33.53810057 -23.71972399 42.46190114 -26.5390625 51.19921875 C-27.06921325 52.81937464 -27.59973385 54.43940955 -28.13061523 56.05932617 C-36.77926698 82.27182606 -36.77926698 82.27182606 -42.6640625 109.19921875 C-42.79425781 109.96105469 -42.92445313 110.72289063 -43.05859375 111.5078125 C-47.88238584 145.53162603 -35.29128446 179.04466231 -19.9140625 208.69921875 C-19.47884277 209.54073486 -19.04362305 210.38225098 -18.59521484 211.24926758 C-15.73115541 216.61707628 -12.45372022 221.4416398 -8.6640625 226.19921875 C-4.95525212 222.66168558 -1.8118827 218.95339048 1.1484375 214.76171875 C1.58148193 214.14901123 2.01452637 213.53630371 2.46069336 212.9050293 C28.15501455 175.98095332 40.53193079 129.71942846 33.13623047 85.04956055 C29.27393908 63.96547038 20.69991296 36.87777974 3.0390625 23.234375 C-3.49946764 19.26026838 -10.05468547 21.78927443 -15.6640625 26.19921875 Z M50.3359375 278.19921875 C50.0059375 278.85921875 49.6759375 279.51921875 49.3359375 280.19921875 C69.42033563 291.81983483 90.22900812 301.13573487 112.3359375 308.19921875 C113.2542334 308.49425293 114.1725293 308.78928711 115.11865234 309.09326172 C147.51467839 319.36196315 183.24082847 328.35238387 215.21435547 312.25341797 C228.60847224 305.24126273 241.78107708 296.97640833 253.3359375 287.19921875 C254.02042969 286.65652344 254.70492187 286.11382812 255.41015625 285.5546875 C262.26299332 279.56334995 265.26902656 271.57571927 268.3359375 263.19921875 C268.3359375 262.53921875 268.3359375 261.87921875 268.3359375 261.19921875 C196.8442402 222.01277695 114.70746404 224.20452299 50.3359375 278.19921875 Z M-267.6640625 280.19921875 C-268.31407227 280.7730127 -268.96408203 281.34680664 -269.63378906 281.93798828 C-271.80494193 283.86298433 -273.95565003 285.80864563 -276.1015625 287.76171875 C-276.78839111 288.37466797 -277.47521973 288.98761719 -278.18286133 289.61914062 C-283.24887364 294.31797807 -287.34612457 299.22499467 -287.9140625 306.32421875 C-284.51547127 314.14097859 -273.87627903 317.90528013 -266.6640625 321.44921875 C-265.528479 322.01060547 -264.39289551 322.57199219 -263.22290039 323.15039062 C-223.2354135 342.67729478 -185.55360765 352.91183409 -142.17138672 338.36328125 C-122.08421711 331.21273928 -103.60579897 321.10019913 -86.6640625 308.19921875 C-85.74625 307.50183594 -84.8284375 306.80445313 -83.8828125 306.0859375 C-81.43610197 304.16749401 -79.04569494 302.19789345 -76.6640625 300.19921875 C-75.80240479 299.48668945 -75.80240479 299.48668945 -74.92333984 298.75976562 C-72.99650434 297.16452967 -71.07919253 295.55848189 -69.1640625 293.94921875 C-68.55151611 293.44132812 -67.93896973 292.9334375 -67.30786133 292.41015625 C-64.38836616 289.92918017 -61.98905492 287.86038202 -60.6640625 284.19921875 C-87.19698861 266.54737601 -116.11476623 256.43105629 -147.6640625 252.19921875 C-148.63214844 252.06773437 -149.60023438 251.93625 -150.59765625 251.80078125 C-189.86232555 247.58367598 -237.31074373 252.94749744 -267.6640625 280.19921875 Z M-10.6640625 254.19921875 C-12.52779386 256.22382594 -14.2908826 258.26551251 -16.0390625 260.38671875 C-19.31365777 264.30716497 -22.60035768 268.18343578 -26.125 271.8828125 C-26.67623535 272.46200439 -27.2274707 273.04119629 -27.79541016 273.63793945 C-28.85748352 274.74438602 -29.92727089 275.84348989 -31.00537109 276.93432617 C-34.30667847 280.3803969 -34.30667847 280.3803969 -34.6640625 285.19921875 C-33.26552027 286.90112076 -33.26552027 286.90112076 -31.2890625 288.38671875 C-30.19078125 289.29744141 -30.19078125 289.29744141 -29.0703125 290.2265625 C-28.27625 290.87753906 -27.4821875 291.52851563 -26.6640625 292.19921875 C-19.41786169 298.42201133 -12.9583139 305.03448577 -6.6640625 312.19921875 C-3.21156638 308.796044 0.09107974 305.30021944 3.3359375 301.69921875 C9.44192241 294.97056649 15.86640077 288.57618659 22.3359375 282.19921875 C19.41303909 279.19980468 16.50942237 276.4463107 13.1484375 273.94921875 C5.81841854 268.3388881 -0.9566169 262.12706372 -7.2890625 255.4140625 C-8.60806437 253.97851395 -8.60806437 253.97851395 -10.6640625 254.19921875 Z M-6.6640625 339.19921875 C-21.15931381 357.14572037 -30.59512183 379.87033864 -35.6640625 402.19921875 C-35.90962891 403.24770996 -35.90962891 403.24770996 -36.16015625 404.31738281 C-41.52188628 428.23468681 -39.81409167 454.44222307 -34.6640625 478.19921875 C-34.48214355 479.04194336 -34.30022461 479.88466797 -34.11279297 480.75292969 C-28.43306693 506.10105464 -17.89674943 530.8770891 -4.6640625 553.19921875 C-0.43214107 550.16997481 2.35093646 546.70992653 5.1484375 542.38671875 C5.79582886 541.3953894 5.79582886 541.3953894 6.45629883 540.3840332 C21.218862 517.43364708 30.41543713 491.39400788 33.3359375 464.19921875 C33.44550781 463.20277344 33.55507813 462.20632813 33.66796875 461.1796875 C36.74336668 429.23655432 28.50010058 398.20540696 13.3359375 370.19921875 C12.9450293 369.46429199 12.55412109 368.72936523 12.15136719 367.97216797 C6.82869937 357.98001118 1.29107686 348.16643715 -5.6640625 339.19921875 C-5.9940625 339.19921875 -6.3240625 339.19921875 -6.6640625 339.19921875 Z " fill="#000000" transform="translate(309.6640625,11.80078125)"/>
</svg>
